# xmcd CD database file
#
# Track frame offsets:
#	150
#	14630
#	31757
#	44142
#	58497
#	74277
#	90572
#	106045
#	123120
#	135610
#	149817
#	164462
#	170975
#	183147
#	197525
#
# Disc length: 2888 seconds
#
# Revision: 0
# Processed by: cddbd v1.5PL3 Copyright (c) Steve Scherf et al.
# Submitted via: CDex 1.50beta10
#
DISCID=dd0b460f
DTITLE=Verschiedene Interpreten - Stimmungs Hits
DYEAR=1900
DGENRE=Fetenhits
TTITLE0=Fetenhits - Kreutzberger Nächte
TTITLE1=Fetenhits - Polonäse Blankenese
TTITLE2=Fetenhits - Das kommt uns spanisch vor
TTITLE3=Fetenhits - Ich war verliebt in sie
TTITLE4=Fetenhits - Tequilla, Tequilla
TTITLE5=Fetenhits - An der Nordseeküste
TTITLE6=Fetenhits - Frau Meier
TTITLE7=Fetenhits - Alles hat ein Ende nur die Wurst hat zwei
TTITLE8=Fetenhits - Der wilde, wilde Westen
TTITLE9=Fetenhits - Sieben Fässer Wein
TTITLE10=Fetenhits - Da steht ein Pferd auf dem Flur
TTITLE11=Fetenhits - Rucki Zucki
TTITLE12=Fetenhits - Guten Morgen liebe Sorgen
TTITLE13=Fetenhits - Ole' Senorita
TTITLE14=Fetenhits - Wenn die Sonne erwacht. Habenero.Taverne
EXTD=
EXTT0=
EXTT1=
EXTT2=
EXTT3=
EXTT4=
EXTT5=
EXTT6=
EXTT7=
EXTT8=
EXTT9=
EXTT10=
EXTT11=
EXTT12=
EXTT13=
EXTT14=
PLAYORDER=
